HIERARCHY
ROOT Hips
{
	OFFSET 0.000000 0.000000 0.000000 
	CHANNELS 6 Xposition Yposition Zposition Zrotation Yrotation Xrotation
	JOINT LeftUpLeg
	{
		OFFSET 1.363060 -1.794630 0.839290 
		CHANNELS 3 Zrotation Yrotation Xrotation
		JOINT LeftLeg
		{
			OFFSET 2.448110 -6.726130 0.000000 
			CHANNELS 3 Zrotation Yrotation Xrotation
			JOINT LeftFoot
			{
				OFFSET 2.562200 -7.039590 0.000000 
				CHANNELS 3 Zrotation Yrotation Xrotation
				JOINT LeftToeBase
				{
					OFFSET 0.157640 -0.433110 2.322550 
					CHANNELS 3 Zrotation Yrotation Xrotation
					End Site
					{
						OFFSET 0.000000 0.000000 0.000000 
					}
				}
			}
		}
	}
	JOINT RightUpLeg
	{
		OFFSET -1.305520 -1.794630 0.839290 
		CHANNELS 3 Zrotation Yrotation Xrotation
		JOINT RightLeg
		{
			OFFSET -2.542530 -6.985550 0.000000 
			CHANNELS 3 Zrotation Yrotation Xrotation
			JOINT RightFoot
			{
				OFFSET -2.568260 -7.056230 0.000000 
				CHANNELS 3 Zrotation Yrotation Xrotation
				JOINT RightToeBase
				{
					OFFSET -0.164730 -0.452590 2.363150 
					CHANNELS 3 Zrotation Yrotation Xrotation
					End Site
					{
						OFFSET 0.000000 0.000000 0.000000 
					}
				}
			}
		}
	}
	JOINT Spine
	{
		OFFSET 0.028270 2.035590 -0.193380 
		CHANNELS 3 Zrotation Yrotation Xrotation
		JOINT Spine1
		{
			OFFSET 0.056720 2.048850 -0.042750 
			CHANNELS 3 Zrotation Yrotation Xrotation
			JOINT Neck1
			{
				OFFSET -0.054170 1.746240 0.172020 
				CHANNELS 3 Zrotation Yrotation Xrotation
				JOINT Head
				{
					OFFSET 0.104070 1.761360 -0.123970 
					CHANNELS 3 Zrotation Yrotation Xrotation
					End Site
					{
						OFFSET 0.000000 0.000000 0.000000 
					}
				}
			}
			JOINT LeftArm
			{
				OFFSET 3.362410 1.200890 -0.311210 
				CHANNELS 3 Zrotation Yrotation Xrotation
				JOINT LeftForeArm
				{
					OFFSET 4.983000 -0.000000 -0.000000 
					CHANNELS 3 Zrotation Yrotation Xrotation
					JOINT LeftHand
					{
						OFFSET 3.483560 -0.000000 -0.000000 
						CHANNELS 3 Zrotation Yrotation Xrotation
						JOINT LeftHandIndex1
						{
							OFFSET 0.715260 -0.000000 -0.000000 
							CHANNELS 3 Zrotation Yrotation Xrotation
							End Site
							{
								OFFSET 0.000000 0.000000 0.000000 
							}
						}
					}
				}
			}
			JOINT RightArm
			{
				OFFSET -3.136600 1.374050 -0.404650 
				CHANNELS 3 Zrotation Yrotation Xrotation
				JOINT RightForeArm
				{
					OFFSET -5.241900 -0.000000 -0.000000 
					CHANNELS 3 Zrotation Yrotation Xrotation
					JOINT RightHand
					{
						OFFSET -3.444170 -0.000000 -0.000000 
						CHANNELS 3 Zrotation Yrotation Xrotation
						JOINT RightHandIndex1
						{
							OFFSET -0.622530 -0.000000 -0.000000 
							CHANNELS 3 Zrotation Yrotation Xrotation
							End Site
							{
								OFFSET 0.000000 0.000000 0.000000 
							}
						}
					}
				}
			}
		}
	}
}
MOTION
Frames: 12
Frame Time: 0.041667
-0.816579 18.326405 5.823855 -4.683352 17.304570 7.092684 -5.027834 -21.210945 -22.026899 2.628911 10.165714 31.620018 0.650661 -0.899840 -6.284132 9.023500 -16.822800 -56.171300 24.428543 -13.759740 -5.897729 0.569741 1.077274 1.840244 0.899799 -8.397491 -13.786624 -0.348700 3.794000 -10.497900 0.356498 2.321783 34.836576 -3.762087 1.745212 -26.349493 1.917662 -0.119202 21.284781 0.150600 0.370800 8.416100 -68.243785 39.334781 75.940748 128.848963 -48.233854 -93.822053 -0.956425 0.264548 -27.769923 -7.125000 0.000000 0.000000 81.456851 -46.013034 60.680368 -126.613790 40.346145 -92.846430 -0.255139 0.769684 -9.358045 7.125000 0.000000 0.000000 
-0.804973 18.327585 5.826314 -4.743941 17.320043 7.250375 -4.967766 -21.202462 -22.241707 2.637713 10.178171 31.655322 0.660836 -0.958594 -6.240261 9.004000 -16.810300 -56.103900 24.465464 -13.606952 -6.041806 0.571960 1.071947 1.836086 0.903638 -8.436287 -13.827929 -0.376300 3.939900 -10.907600 0.680651 2.201557 34.790502 -3.796781 1.711961 -26.408585 1.869260 -0.024567 21.565678 0.162500 0.413500 8.530300 -68.464724 39.319694 75.740766 128.753631 -48.282275 -93.735598 -0.952047 0.262838 -27.857612 -7.125000 0.000000 0.000000 81.037054 -46.127482 61.086004 -126.575334 40.330319 -92.843596 -0.257932 0.764819 -9.399069 7.125000 0.000000 0.000000 
-0.795432 18.333388 5.828969 -4.729930 17.407004 7.473150 -4.950202 -21.318901 -22.489941 2.647070 10.188917 31.691080 0.669182 -1.018431 -6.178451 8.942800 -16.770800 -55.892100 24.458036 -13.506204 -6.261224 0.573721 1.065061 1.831340 0.906364 -8.470517 -13.868201 -0.388900 4.004300 -11.088700 1.032170 2.028587 34.767303 -3.768486 1.671053 -26.395327 1.765252 0.158611 22.008252 0.160100 0.499600 8.711000 -68.738663 39.245663 75.441339 128.732874 -48.301848 -93.713053 -0.945083 0.263451 -28.040915 -7.125000 0.000000 0.000000 80.940610 -45.912483 60.943405 -126.556216 40.422612 -92.777063 -0.259870 0.767686 -9.360135 7.125000 0.000000 0.000000 
-0.791497 18.344601 5.828084 -4.712995 17.536516 7.739039 -4.875081 -21.416146 -22.850748 2.655914 10.204366 31.723121 0.667168 -1.070097 -5.948920 8.924000 -16.758500 -55.826800 24.514540 -13.430330 -6.551364 0.575517 1.059297 1.827251 0.905530 -8.490806 -13.917279 -0.363200 3.871200 -10.714600 1.226321 1.866469 34.763202 -3.712706 1.615220 -26.389044 1.467230 0.350759 22.492014 0.082600 0.579500 8.898800 -68.928973 39.261286 75.099646 128.784796 -48.281381 -93.761361 -0.937415 0.264488 -28.237648 -7.125000 0.000000 0.000000 80.990338 -45.596241 60.683680 -126.550071 40.537513 -92.710454 -0.253757 0.766373 -9.354536 7.125000 0.000000 0.000000 
-0.792776 18.358568 5.816773 -4.632150 17.642738 8.140906 -4.753686 -21.600254 -23.412305 2.665668 10.238010 31.774751 0.640444 -1.034322 -5.585188 8.900800 -16.743400 -55.746300 24.599046 -13.293739 -7.015773 0.579195 1.056657 1.822761 0.924080 -8.600721 -13.957051 -0.327200 3.676400 -10.168000 1.072662 1.787793 34.809771 -3.677231 1.549389 -26.409492 1.135097 0.587988 22.326827 -0.018200 0.665500 8.823900 -68.975028 39.330390 74.791650 128.921601 -48.216325 -93.885188 -0.929272 0.264559 -28.438904 -7.125000 0.000000 0.000000 81.531401 -44.998832 59.921795 -126.564056 40.728209 -92.629650 -0.222292 0.746725 -9.249072 7.125000 0.000000 0.000000 
-0.797005 18.371355 5.793658 -4.455192 17.710869 8.692801 -4.638145 -21.963645 -24.145589 2.682701 10.294044 31.879393 0.586107 -0.865968 -5.218436 8.884800 -16.733000 -55.690900 24.644466 -13.065365 -7.665784 0.585379 1.054257 1.815549 0.976239 -8.862043 -13.962346 -0.312400 3.593100 -9.934500 0.827742 1.753278 34.995448 -3.697328 1.504891 -26.355898 1.515927 0.767054 21.358474 0.108600 0.755100 8.486400 -68.965360 39.194288 74.590730 129.192469 -48.103856 -94.110291 -0.924889 0.263910 -28.633071 -7.125000 0.000000 0.000000 82.691507 -43.993553 58.308935 -126.747405 40.986307 -92.649126 -0.167565 0.718325 -8.967029 7.125000 0.000000 0.000000 
-0.806841 18.379027 5.755790 -4.205568 17.741417 9.178926 -4.556869 -22.152358 -25.001981 2.717407 10.382577 32.069942 0.543379 -0.760174 -4.753738 8.944100 -16.771600 -55.896400 24.657792 -12.835257 -8.279381 0.591205 1.058422 1.809770 1.047562 -9.160453 -13.854147 -0.304700 3.549200 -9.811600 0.123345 1.893025 35.166167 -3.551129 1.554426 -26.109971 1.667192 1.025223 17.520573 0.181800 0.793300 7.177200 -68.949608 38.891475 74.358126 129.625297 -47.922607 -94.483834 -0.937466 0.259793 -28.587045 -7.125000 0.000000 0.000000 82.238042 -44.294084 59.013436 -127.124440 40.690867 -93.099454 -0.216023 0.695564 -9.215912 7.125000 0.000000 0.000000 
-0.822382 18.379224 5.703168 -3.926764 17.692804 9.455650 -4.615507 -22.034225 -25.823157 2.779606 10.506014 32.390259 0.544100 -0.865395 -4.242376 9.002000 -16.809000 -56.097200 24.543479 -12.640163 -8.679099 0.594005 1.068599 1.807690 1.121866 -9.431101 -13.639610 -0.299600 3.519200 -9.727900 -0.679099 2.034326 35.808511 -3.473040 1.586165 -26.081832 1.965382 1.315607 13.027058 0.271700 0.844600 5.829200 -69.099147 38.571520 73.907014 130.232930 -47.651096 -94.998975 -0.956960 0.271165 -28.379701 -7.125000 0.000000 0.000000 82.567940 -44.059043 58.926335 -127.484774 40.576518 -93.380264 -0.307205 0.597911 -8.956129 7.125000 0.000000 0.000000 
-0.839693 18.373912 5.635005 -3.645732 17.488628 9.649942 -4.750079 -21.664160 -26.701034 2.869129 10.672612 32.851780 0.565079 -1.051558 -3.793207 9.044000 -16.836000 -56.242200 24.311119 -11.057966 -11.963249 0.212648 -1.177455 7.856664 0.539620 -7.173111 -15.021807 -0.300200 3.522800 -9.737800 -1.469575 2.247032 36.547629 -3.534695 1.650830 -25.816378 2.554048 1.812541 4.812538 0.515800 0.911200 3.752700 -69.569233 38.238330 73.281766 130.876273 -47.332583 -95.538472 -0.983496 0.286916 -28.016889 -7.125000 0.000000 0.000000 83.485906 -43.416573 58.190056 -127.532846 40.694535 -93.434132 -0.080041 0.700687 -7.994843 7.125000 0.000000 0.000000 
-0.856611 18.365060 5.560842 -3.548078 17.125505 9.812137 -4.835880 -20.918879 -27.730599 2.975679 10.886241 33.426130 0.564855 -1.119911 -3.330093 9.098300 -16.870600 -56.429500 24.146603 -9.927310 -13.750393 -0.058578 -2.297062 10.928675 0.322200 -6.384220 -15.595209 -0.332100 3.703900 -10.245100 -2.331473 2.511198 37.101214 -3.681443 1.692680 -25.351524 2.532345 2.430182 -2.621072 0.508700 1.056200 1.347400 -70.126926 38.196868 72.534032 131.569613 -46.958248 -96.129777 -1.024275 0.295181 -27.423085 -7.125000 0.000000 0.000000 84.636778 -42.680929 57.203936 -127.310195 40.968813 -93.175570 0.117388 0.723550 -6.221673 7.125000 0.000000 0.000000 
-0.874119 18.350995 5.498482 -3.640692 16.822378 10.078019 -4.763907 -20.077046 -28.926528 3.094077 11.127503 34.068867 0.535876 -1.016507 -2.938708 9.096900 -16.869700 -56.424600 24.183810 -8.942218 -15.207071 -0.283627 -3.101689 13.146439 0.185962 -5.916718 -15.982949 -0.389000 4.005100 -11.091000 -2.933777 2.710805 37.492291 -3.811732 1.732724 -24.750849 2.132626 3.008759 -8.754622 0.416400 1.246000 -0.483000 -70.845386 38.296309 71.646255 132.291217 -46.565670 -96.741464 -1.077440 0.290197 -27.023222 -7.125000 0.000000 0.000000 85.111059 -42.463761 56.918090 -127.748949 40.781074 -93.549710 0.037199 0.695042 -6.951054 7.125000 0.000000 0.000000 
-0.893889 18.329749 5.451663 -3.896448 16.632457 10.533112 -4.440692 -19.452600 -30.271479 3.218020 11.373726 34.722562 0.518956 -0.929981 -2.774420 9.043900 -16.835900 -56.241800 24.538763 -8.331504 -16.718828 -0.477658 -3.723144 14.841976 0.050619 -5.276969 -16.033469 -0.426400 4.190900 -11.614500 -2.994369 2.872069 37.830632 -4.029294 1.813238 -24.225437 2.238109 3.356543 -13.201469 0.520600 1.365200 -1.900900 -71.494937 38.488355 71.017111 133.004163 -46.175044 -97.333768 -1.132217 0.280210 -26.952781 -7.125000 0.000000 0.000000 85.390675 -42.661066 56.859518 -128.102800 40.497600 -94.006518 0.228456 0.905780 -8.361030 7.125000 0.000000 0.000000 
